<?xml version="1.0" encoding="UTF-8"?>
<svg width="128px" height="60px" viewBox="0 0 128 60" version="1.1" xmlns="http://www.w3.org/2000/svg" xmlns:xlink="http://www.w3.org/1999/xlink">
    <title>nft-light</title>
    <g id="nft-light" stroke="none" stroke-width="1" fill="none" fill-rule="evenodd">
        <path d="M40.0571429,56.2285714 C40.0571429,57.2 39.6714286,58.0714286 38.9,58.8428571 C38.1285714,59.6142857 37.2571429,60 36.2857143,60 L34.4,60 C32.9714286,60 31.8571429,59.5714286 31.0571429,58.7142857 C30.2571429,57.8571429 29.7,57.0428571 29.3857143,56.2714286 L29.0743304,55.5301339 C28.9247768,55.1886161 28.8142857,54.9642857 28.7428571,54.8571429 L9.54285714,13.7142857 L9.62857143,56.1428571 C9.62857143,57.3428571 9.24285714,58.2714286 8.47142857,58.9285714 C7.7,59.5857143 6.8,59.9142857 5.77142857,59.9142857 C4.74285714,59.9142857 3.85714286,59.5857143 3.11428571,58.9285714 C2.37142857,58.2714286 2,57.3714286 2,56.2285714 L2,3.77142857 C2,2.8 2.4,1.92857143 3.2,1.15714286 C4,0.385714286 4.85714286,0 5.77142857,0 L7.65714286,0 C9.08571429,0 10.1714286,0.428571429 10.9142857,1.28571429 C11.6571429,2.14285714 12.2142857,3.01428571 12.5857143,3.9 L13.1571429,5.23333333 L32.5142857,46.7142857 L32.5142857,3.77142857 C32.5142857,2.57142857 32.8857143,1.65714286 33.6285714,1.02857143 C34.3714286,0.4 35.2571429,0.0857142857 36.2857143,0.0857142857 C37.3142857,0.0857142857 38.2,0.414285714 38.9428571,1.07142857 C39.6857143,1.72857143 40.0571429,2.62857143 40.0571429,3.77142857 L40.0571429,56.2285714 Z M79.1428571,26.2285714 C80.3428571,26.2285714 81.2571429,26.6 81.8857143,27.3428571 C82.5142857,28.0857143 82.8285714,28.9714286 82.8285714,30 C82.8285714,31.0285714 82.5142857,31.9142857 81.8857143,32.6571429 C81.2571429,33.4 80.3428571,33.7714286 79.1428571,33.7714286 L56.1714286,33.7714286 L56.1714286,56.2285714 C56.1714286,57.3714286 55.8,58.2714286 55.0571429,58.9285714 C54.3142857,59.5857143 53.4285714,59.9142857 52.4,59.9142857 C51.3714286,59.9142857 50.4857143,59.5857143 49.7428571,58.9285714 C49,58.2714286 48.6285714,57.3714286 48.6285714,56.2285714 L48.6285714,3.77142857 C48.6285714,2.62857143 48.9714286,1.71428571 49.6571429,1.02857143 C50.3428571,0.342857143 51.2571429,0 52.4,0 L79.1428571,0 C80.2857143,0 81.1857143,0.385714286 81.8428571,1.15714286 C82.5,1.92857143 82.8285714,2.82857143 82.8285714,3.85714286 C82.8285714,4.88571429 82.5142857,5.75714286 81.8857143,6.47142857 C81.2571429,7.18571429 80.3428571,7.54285714 79.1428571,7.54285714 L56.1714286,7.54285714 L56.1714286,26.2285714 L79.1428571,26.2285714 Z M112.228571,56.2285714 C112.228571,57.3714286 111.857143,58.2714286 111.114286,58.9285714 C110.371429,59.5857143 109.485714,59.9142857 108.457143,59.9142857 C107.428571,59.9142857 106.542857,59.5857143 105.8,58.9285714 C105.057143,58.2714286 104.685714,57.3714286 104.685714,56.2285714 L104.685714,7.54285714 L95.0857143,7.54285714 C93.9428571,7.54285714 93.0428571,7.17142857 92.3857143,6.42857143 C91.7285714,5.68571429 91.4,4.8 91.4,3.77142857 C91.4,2.74285714 91.7285714,1.85714286 92.3857143,1.11428571 C93.0428571,0.371428571 93.9428571,0 95.0857143,0 L121.828571,0 C123.028571,0 123.942857,0.371428571 124.571429,1.11428571 C125.2,1.85714286 125.514286,2.74285714 125.514286,3.77142857 C125.514286,4.8 125.2,5.68571429 124.571429,6.42857143 C123.942857,7.17142857 123.028571,7.54285714 121.828571,7.54285714 L112.4,7.54285714 L112.228571,56.2285714 Z" id="nft" fill="#000000" fill-rule="nonzero"></path>
    </g>
</svg>